{"glyphs":{":":{"x_min":0,"x_max":306,"ha":306,"o":"m 153 99 q 174 99 189 84 q 205 68 205 48 q 205 25 190 10 q 175 -5 153 -5 q 131 -5 116 10 q 101 26 101 48 q 101 68 117 83 q 132 99 153 99 z m 149 424 q 170 424 185 409 q 200 394 200 373 q 200 350 186 335 q 171 321 149 321 q 127 321 112 336 q 96 352 96 373 q 96 393 112 408 q 128 424 149 424 z"},"$":{"x_min":0,"x_max":556,"ha":556,"o":"m 284 315 l 284 23 q 346 30 381 67 q 417 105 417 164 q 417 226 387 260 q 357 294 284 315 z m 265 677 q 205 669 172 634 q 139 598 139 541 q 139 486 168 454 q 197 422 265 403 z m 265 778 l 297 778 l 297 706 q 374 701 424 665 q 473 628 473 578 q 473 554 463 540 q 454 526 438 526 q 421 526 412 540 q 402 555 402 579 q 402 594 405 607 q 407 620 413 632 q 392 652 362 664 q 332 675 297 676 l 297 392 q 403 357 449 309 q 495 261 495 186 q 495 104 440 53 q 384 1 284 -9 l 284 -100 l 252 -100 l 252 -8 q 163 -4 103 47 q 43 98 43 164 q 43 192 53 208 q 63 224 81 224 q 98 224 107 211 q 116 197 116 173 q 116 156 112 143 q 107 129 97 115 q 112 74 154 49 q 195 24 252 22 l 252 327 q 155 353 109 401 q 63 449 63 524 q 63 605 117 654 q 171 703 265 707 z"},"?":{"x_min":0,"x_max":502,"ha":502,"o":"m 201 99 q 222 99 237 84 q 252 68 252 48 q 252 25 238 10 q 223 -5 201 -5 q 179 -5 164 10 q 149 26 149 48 q 149 68 165 83 q 181 99 201 99 z m 215 166 l 186 166 q 186 172 185 179 q 185 187 185 201 q 185 256 199 291 q 213 326 247 359 q 250 362 257 369 q 341 450 341 545 q 341 620 310 660 q 279 700 221 700 q 188 700 161 680 q 134 660 129 630 q 143 618 149 603 q 155 587 155 567 q 155 551 147 542 q 139 532 126 532 q 110 532 99 548 q 87 563 87 586 q 87 646 132 687 q 177 727 246 727 q 322 727 371 678 q 420 629 420 553 q 420 505 405 468 q 390 432 356 397 q 341 382 304 353 q 268 324 251 304 q 232 281 223 253 q 215 225 215 178 z"},"<":{"x_min":0,"x_max":833,"ha":833,"o":"m 704 559 l 704 497 l 216 298 l 704 100 l 704 37 l 129 273 l 129 323 z"},"'":{"x_min":0,"x_max":170,"ha":170,"o":"m 93 422 l 77 422 l 45 645 q 44 649 44 653 q 44 657 44 664 q 44 688 54 701 q 65 714 85 714 q 105 714 116 701 q 127 688 127 665 q 127 661 125 648 q 125 646 125 645 z"},"=":{"x_min":0,"x_max":833,"ha":833,"o":"m 124 233 l 709 233 l 709 176 l 124 176 z m 124 420 l 709 420 l 709 363 l 124 363 z"},"a":{"x_min":0,"x_max":500,"ha":500,"o":"m 306 236 q 181 211 145 187 q 109 163 109 117 q 109 80 130 57 q 151 34 185 34 q 219 34 248 53 q 277 72 303 111 z m 387 311 l 383 152 q 383 143 382 124 q 382 105 382 96 q 382 69 392 56 q 402 43 424 43 q 439 43 451 50 q 462 57 470 72 l 487 62 q 470 26 444 9 q 418 -9 383 -9 q 347 -9 326 11 q 305 31 303 67 q 271 28 232 10 q 194 -9 145 -9 q 94 -9 64 21 q 33 50 33 99 q 33 157 72 188 q 111 220 244 249 q 261 253 282 256 q 307 261 307 267 l 308 313 l 308 330 q 308 401 289 429 q 270 457 224 457 q 195 457 172 449 q 148 441 128 424 q 128 420 129 414 q 132 389 132 381 q 132 354 119 337 q 107 321 87 321 q 74 321 66 331 q 58 341 58 358 q 58 406 111 446 q 163 486 232 486 q 313 486 350 448 q 387 410 387 323 z"},"L":{"x_min":0,"x_max":620,"ha":620,"o":"m 58 718 q 109 715 137 714 q 166 713 183 713 q 211 713 247 714 q 282 715 329 718 l 329 685 l 315 685 q 259 685 245 673 q 231 660 231 604 l 231 32 l 400 32 q 502 32 539 70 q 576 107 586 225 l 617 225 q 617 190 603 59 q 599 21 597 0 q 532 0 438 1 q 343 2 322 2 q 242 2 70 0 l 58 0 l 58 32 q 111 32 125 46 q 139 59 139 114 l 139 604 q 139 659 125 672 q 112 684 58 685 z"},"3":{"x_min":0,"x_max":556,"ha":556,"o":"m 278 363 l 278 362 q 388 356 442 312 q 497 268 497 186 q 497 99 430 45 q 363 -9 252 -9 q 163 -9 102 35 q 41 80 41 141 q 41 162 52 176 q 62 189 78 189 q 98 189 107 173 q 117 158 117 127 q 117 118 115 105 q 112 93 112 90 q 112 65 154 44 q 195 23 253 23 q 325 23 367 67 q 409 111 409 187 q 409 264 366 301 q 323 338 234 338 q 222 338 197 336 l 194 336 l 194 372 q 284 374 332 417 q 381 460 381 538 q 381 602 345 640 q 309 678 248 678 q 212 678 183 666 q 153 654 133 631 q 135 615 136 607 q 137 600 137 594 q 137 563 126 546 q 114 528 95 528 q 80 528 73 538 q 65 549 65 569 q 65 624 122 666 q 179 708 259 708 q 348 708 404 660 q 460 611 460 534 q 460 464 414 421 q 367 377 278 363 z"},";":{"x_min":0,"x_max":306,"ha":306,"o":"m 104 -161 l 87 -141 q 123 -110 141 -79 q 158 -48 158 -15 q 158 -8 158 -4 q 158 0 157 3 q 151 1 145 1 q 139 0 134 0 q 112 0 98 14 q 85 28 85 51 q 85 75 99 90 q 114 105 136 105 q 166 105 185 80 q 203 56 203 15 q 203 -30 177 -76 q 151 -122 104 -161 z m 143 424 q 164 424 179 409 q 194 394 194 373 q 194 350 179 335 q 165 321 143 321 q 121 321 105 336 q 90 352 90 373 q 90 393 106 408 q 122 424 143 424 z"},"J":{"x_min":0,"x_max":410,"ha":410,"o":"m 84 718 q 131 715 166 714 q 201 713 229 713 q 247 713 274 714 q 302 715 357 718 l 357 685 q 307 684 294 671 q 281 658 281 604 l 281 118 q 281 48 274 15 q 267 -18 250 -44 q 226 -82 187 -104 q 147 -125 101 -125 q 43 -125 4 -92 q -35 -59 -35 -10 q -35 15 -23 31 q -10 46 10 46 q 31 46 45 29 q 60 12 60 -12 q 60 -29 53 -42 q 46 -55 31 -66 q 41 -80 56 -86 q 71 -93 94 -93 q 144 -93 167 -59 q 190 -26 190 48 q 190 66 189 102 q 188 138 188 157 l 188 604 q 188 660 174 672 q 160 684 84 685 z"},"V":{"x_min":0,"x_max":632,"ha":632,"o":"m 0 718 q 49 715 74 714 q 99 713 115 713 q 141 713 172 714 q 204 715 247 718 l 247 685 q 209 684 194 677 q 179 670 179 655 q 179 646 182 632 q 186 619 192 600 l 353 141 l 505 600 q 509 612 511 625 q 513 637 513 647 q 513 667 499 676 q 484 685 451 685 l 445 685 l 445 718 q 479 715 501 714 q 523 713 539 713 q 554 713 575 714 q 597 715 630 718 l 630 685 q 594 681 581 673 q 568 664 561 644 l 393 165 q 376 118 355 60 q 334 1 331 -9 l 314 -5 l 82 618 q 81 621 80 625 q 58 685 0 685 z"},"\"":{"x_min":0,"x_max":331,"ha":331,"o":"m 253 422 l 238 422 l 206 645 q 206 646 206 648 q 204 659 204 664 q 204 688 215 701 q 226 714 246 714 q 266 714 276 701 q 287 688 287 665 q 287 658 287 654 q 287 649 286 645 z m 93 422 l 77 422 l 46 645 q 45 653 44 658 q 44 662 44 665 q 44 688 55 701 q 65 714 85 714 q 105 714 116 701 q 127 688 127 665 q 127 661 125 648 q 125 646 125 645 z"},"7":{"x_min":0,"x_max":556,"ha":556,"o":"m 64 704 q 110 700 162 698 q 214 697 286 697 l 352 697 q 419 697 451 698 q 483 700 509 704 l 521 688 l 409 471 q 330 319 307 249 q 285 179 285 113 q 285 91 286 67 q 287 42 287 39 q 287 15 261 -5 q 235 -25 218 -25 q 208 -25 204 -13 q 200 -2 200 41 q 200 104 218 166 q 236 228 274 298 l 457 632 q 398 629 367 629 q 336 628 309 628 q 277 628 233 629 q 189 630 178 630 q 126 630 112 612 q 97 595 97 540 l 97 526 l 67 526 q 66 578 66 622 q 65 667 64 704 z"},"S":{"x_min":0,"x_max":611,"ha":611,"o":"m 485 667 l 493 704 l 515 704 q 514 674 513 651 q 512 627 512 612 q 512 589 513 562 q 514 536 515 506 l 491 506 q 483 598 436 646 q 389 694 308 694 q 245 694 204 656 q 164 618 164 558 q 164 506 194 474 q 225 442 312 410 q 458 355 501 310 q 543 265 543 193 q 543 104 476 48 q 410 -9 304 -9 q 251 -9 204 9 q 157 27 114 64 l 103 19 l 81 19 q 81 54 82 93 q 83 131 83 135 q 83 139 82 176 q 81 212 81 246 l 109 246 q 114 140 165 82 q 217 23 305 23 q 373 23 413 62 q 454 100 454 164 q 454 212 423 244 q 393 276 311 307 q 302 311 284 317 q 190 351 153 378 q 115 406 98 440 q 81 474 81 523 q 81 615 140 671 q 200 727 298 727 q 353 727 398 712 q 443 698 485 667 z"},"}":{"x_min":0,"x_max":500,"ha":500,"o":"m 87 740 l 92 740 q 197 740 237 704 q 277 668 277 571 l 277 467 q 277 390 305 361 q 333 333 414 325 l 414 296 q 334 290 306 260 q 277 231 277 154 l 277 50 q 277 -47 237 -83 q 197 -119 92 -119 l 87 -119 l 87 -94 q 157 -93 182 -68 q 207 -42 207 34 l 207 104 q 207 214 237 255 q 267 295 347 310 q 267 325 237 365 q 207 406 207 516 l 207 586 q 207 662 182 688 q 156 714 87 715 z"},"Z":{"x_min":0,"x_max":648,"ha":648,"o":"m 54 720 q 81 720 120 719 q 158 718 166 718 l 595 718 l 595 715 l 173 32 l 414 32 q 520 32 551 66 q 581 100 588 212 l 615 212 l 606 0 l 39 0 l 39 2 l 462 685 l 246 685 q 137 685 107 655 q 78 625 71 531 l 44 531 z"},"x":{"x_min":0,"x_max":509,"ha":509,"o":"m 12 477 q 42 476 67 475 q 91 474 109 474 q 132 474 158 475 q 183 476 212 477 l 212 449 q 196 449 186 443 q 176 437 176 427 q 176 420 180 412 q 183 404 189 395 l 263 290 l 350 403 q 355 410 358 416 q 360 422 360 428 q 360 438 353 442 q 345 446 315 449 l 316 477 q 343 476 361 475 q 379 474 390 474 q 407 474 428 475 q 450 476 473 477 l 474 449 l 469 449 q 443 449 422 436 q 401 422 373 387 l 280 271 l 424 71 q 442 46 456 39 q 471 31 496 28 l 495 0 q 461 1 438 2 q 415 3 403 3 q 383 3 355 2 q 328 1 291 0 l 291 28 l 298 28 q 316 28 326 34 q 335 40 335 50 q 335 58 333 66 q 330 74 324 82 l 229 216 l 119 84 q 113 77 109 67 q 105 58 105 51 q 105 40 119 34 q 133 29 162 28 l 161 0 q 137 0 107 2 q 78 3 73 3 q 67 3 39 2 q 11 0 -12 0 l -12 28 q 14 29 31 37 q 47 45 64 65 l 210 235 l 88 406 q 71 432 55 439 q 39 447 12 449 z"},")":{"x_min":0,"x_max":403,"ha":403,"o":"m 17 741 q 166 627 236 507 q 306 387 306 247 q 306 101 230 -18 q 155 -136 12 -216 l 3 -200 q 123 -116 182 -8 q 241 99 241 235 q 241 375 183 497 q 124 618 5 725 z"},"&":{"x_min":0,"x_max":718,"ha":718,"o":"m 225 379 q 178 352 153 309 q 129 266 129 209 q 129 132 171 86 q 212 41 284 41 q 327 41 362 61 q 398 81 430 122 l 423 137 q 324 342 225 379 z m 300 420 q 351 397 390 350 q 429 304 480 200 q 504 242 518 282 q 532 322 532 349 q 532 376 515 387 q 498 398 450 399 l 450 429 q 479 427 506 426 q 532 425 557 425 q 582 425 610 426 q 637 427 668 429 l 668 399 q 624 399 602 389 q 581 380 574 358 q 573 354 570 341 q 550 248 499 165 q 524 112 556 84 q 587 55 619 55 q 648 55 670 75 q 691 95 705 134 l 728 126 q 707 58 670 24 q 633 -9 579 -9 q 537 -9 502 16 q 467 41 443 87 q 399 38 350 15 q 300 -9 240 -9 q 153 -9 99 44 q 46 97 46 183 q 46 252 85 307 q 124 362 197 395 q 147 426 123 467 q 99 507 99 557 q 99 630 151 679 q 202 728 281 728 q 347 728 388 689 q 429 650 429 588 q 429 530 397 488 q 364 446 300 420 z m 272 435 q 321 461 342 491 q 363 521 363 567 q 363 627 336 662 q 310 697 265 697 q 223 697 196 667 q 169 637 169 589 q 169 536 196 496 q 222 457 272 435 z"},"_":{"x_min":0,"x_max":500,"ha":500,"o":"m 0 -178 l 500 -178 l 500 -236 l 0 -236 z"},"v":{"x_min":0,"x_max":468,"ha":468,"o":"m -6 477 q 36 474 59 473 q 81 472 95 472 q 111 472 135 473 q 160 474 202 477 l 202 449 q 160 446 150 442 q 140 437 140 425 q 140 417 142 409 q 143 401 146 394 l 255 96 l 370 394 q 373 403 375 411 q 376 419 376 425 q 376 437 366 442 q 356 446 316 449 l 316 477 q 344 474 362 473 q 380 472 393 472 q 405 472 421 473 q 437 474 466 477 l 466 449 q 424 449 403 397 l 403 397 l 293 125 q 271 70 259 41 q 246 11 237 -9 l 215 -5 l 54 404 q 53 407 51 412 q 37 449 1 449 l -6 449 z"},"O":{"x_min":0,"x_max":771,"ha":771,"o":"m 381 694 q 276 694 213 603 q 150 512 150 359 q 150 203 213 113 q 276 23 385 23 q 494 23 557 113 q 621 204 621 359 q 621 516 557 605 q 493 694 381 694 z m 389 727 q 542 727 634 627 q 725 527 725 359 q 725 198 627 94 q 529 -9 378 -9 q 229 -9 138 90 q 46 189 46 350 q 46 517 142 622 q 238 727 389 727 z"},"(":{"x_min":0,"x_max":403,"ha":403,"o":"m 390 741 l 399 725 q 279 641 220 533 q 161 426 161 291 q 161 150 219 29 q 278 -93 397 -200 l 385 -216 q 237 -103 167 18 q 96 139 96 278 q 96 424 172 543 q 247 662 390 741 z"},"C":{"x_min":0,"x_max":708,"ha":708,"o":"m 610 629 l 621 679 l 645 679 l 645 676 q 641 591 641 551 q 641 540 642 499 q 643 472 643 456 l 618 456 q 608 568 546 631 q 484 695 386 695 q 273 695 213 610 q 153 526 153 368 q 153 208 220 119 q 287 31 407 31 q 488 31 545 73 q 601 115 625 194 l 653 194 q 630 96 560 43 q 491 -9 383 -9 q 231 -9 139 91 q 46 191 46 355 q 46 520 140 624 q 233 727 383 727 q 452 727 509 702 q 567 677 610 629 z"},"W":{"x_min":0,"x_max":990,"ha":990,"o":"m 6 718 q 55 715 80 714 q 105 713 121 713 q 146 713 177 714 q 208 715 252 718 l 252 685 q 214 684 200 677 q 185 670 185 655 q 185 642 195 609 q 197 604 198 600 l 338 146 l 481 572 l 465 618 q 450 663 434 674 q 418 685 383 685 l 383 718 q 432 715 457 714 q 482 713 498 713 q 523 713 554 714 q 585 715 629 718 l 629 685 q 591 684 577 677 q 562 670 562 655 q 562 642 572 609 q 574 603 575 600 l 716 146 l 867 600 q 871 612 873 625 q 875 637 875 647 q 875 667 861 676 q 846 685 813 685 l 807 685 l 807 718 q 841 715 863 714 q 885 713 900 713 q 915 713 936 714 q 958 715 991 718 l 991 685 q 955 681 942 673 q 929 664 922 644 l 759 178 q 755 165 713 50 l 691 -9 l 677 -5 l 500 516 l 380 173 q 368 139 353 97 q 338 56 314 -9 l 299 -5 l 88 618 q 73 663 57 674 q 41 685 6 685 z"},"A":{"x_min":0,"x_max":625,"ha":625,"o":"m 279 581 l 177 299 l 374 299 z m 298 727 l 319 727 l 550 87 q 562 54 577 43 q 591 32 621 32 l 625 32 l 625 0 q 588 2 559 3 q 529 4 509 4 q 479 4 446 3 q 413 2 377 0 l 377 32 l 382 32 q 415 32 430 42 q 445 52 445 74 q 445 82 444 89 q 443 95 442 100 l 386 266 l 168 266 l 129 157 q 116 122 112 105 q 108 88 108 76 q 108 52 120 43 q 132 34 164 32 l 164 0 q 139 2 116 3 q 92 4 72 4 q 56 4 34 3 q 12 2 -13 0 l -13 32 l -8 32 q 21 32 35 42 q 49 53 62 87 z"},"f":{"x_min":0,"x_max":319,"ha":319,"o":"m 181 558 l 181 458 l 320 458 l 320 431 l 181 431 l 181 95 q 181 30 289 28 l 289 28 l 289 0 q 232 3 197 4 q 162 5 136 5 q 123 5 98 4 q 72 3 9 0 l 9 28 q 78 32 90 41 q 102 51 102 95 l 102 431 l 9 431 l 9 458 l 27 458 l 59 458 q 86 458 93 463 q 100 468 102 491 q 103 501 103 521 q 106 625 133 669 q 155 705 190 724 q 226 743 272 743 q 325 743 358 716 q 392 689 392 649 q 392 626 381 614 q 371 602 351 602 q 333 602 322 613 q 311 625 311 643 q 311 658 320 671 q 328 684 328 687 q 328 697 312 707 q 297 716 276 716 q 225 716 203 680 q 181 644 181 558 z"},"Q":{"x_min":0,"x_max":771,"ha":771,"o":"m 530 24 q 535 -34 556 -61 q 577 -89 615 -89 q 647 -89 669 -69 q 690 -49 702 -7 l 724 -15 q 712 -77 677 -108 q 642 -138 582 -138 q 520 -138 487 -104 q 454 -70 449 -1 q 430 -5 413 -8 q 396 -10 379 -10 q 231 -10 139 90 q 46 190 46 351 q 46 518 142 623 q 238 727 389 727 q 542 727 633 627 q 725 527 725 359 q 725 244 675 158 q 625 72 530 24 z m 445 34 q 437 90 413 116 q 390 142 348 142 q 315 142 288 126 q 260 110 241 79 q 272 50 306 36 q 340 22 381 22 q 397 22 412 25 q 428 28 445 34 z m 521 73 q 568 115 595 190 q 621 265 621 359 q 621 513 558 604 q 494 695 388 695 q 279 695 215 604 q 150 513 150 359 q 150 271 168 208 q 187 145 225 99 q 254 140 292 159 q 329 179 377 179 q 430 179 464 154 q 499 128 521 73 z"},"w":{"x_min":0,"x_max":719,"ha":719,"o":"m 2 477 q 39 474 61 473 q 83 472 99 472 q 116 472 139 473 q 162 474 199 477 l 199 449 q 164 446 155 440 q 145 434 145 418 q 145 408 146 403 q 146 398 148 394 l 241 110 l 343 394 q 346 402 348 411 q 350 419 350 425 q 350 442 303 449 l 300 449 l 300 477 q 338 474 357 473 q 376 472 390 472 q 409 472 431 473 q 454 474 487 477 l 487 449 l 485 449 q 441 442 441 425 q 441 417 442 409 q 443 400 445 394 l 528 104 l 627 394 q 630 402 631 410 q 633 417 633 425 q 633 442 586 449 l 583 449 l 583 477 q 608 474 623 473 q 638 472 650 472 q 664 472 681 473 q 698 474 723 477 l 723 449 q 697 449 684 439 q 672 430 660 397 l 574 160 q 566 140 544 82 q 522 24 510 -9 l 488 -5 l 369 383 l 279 141 q 269 116 255 78 q 241 41 222 -9 l 199 -5 l 62 404 q 52 434 42 441 q 32 449 10 449 l 2 449 z"},"-":{"x_min":0,"x_max":345,"ha":345,"o":"m 46 274 l 289 274 l 289 214 l 46 214 z"},"E":{"x_min":0,"x_max":687,"ha":687,"o":"m 586 721 q 588 674 590 627 q 593 581 596 533 l 571 533 q 561 624 526 655 q 491 685 386 685 l 231 685 l 231 395 l 309 395 q 380 395 398 416 q 417 437 420 508 l 444 508 q 442 458 442 424 q 441 390 441 371 q 441 346 442 311 q 442 275 444 228 l 420 228 q 417 314 398 339 q 379 363 309 363 l 231 363 l 231 32 l 429 32 q 533 32 570 67 q 607 103 616 204 l 641 204 q 634 140 631 91 q 627 42 625 0 l 58 0 l 58 32 q 111 32 125 46 q 139 59 139 114 l 139 604 q 139 659 125 672 q 112 684 58 685 l 58 718 q 221 718 354 719 q 486 720 586 721 z"},"s":{"x_min":0,"x_max":417,"ha":417,"o":"m 323 444 l 331 472 l 353 472 q 352 456 352 440 q 351 424 351 400 q 351 380 353 339 q 353 335 353 333 l 329 333 q 322 394 289 426 q 255 458 197 458 q 156 458 130 435 q 105 411 105 374 q 105 341 127 323 q 148 304 233 279 q 314 255 347 223 q 381 190 381 137 q 381 70 334 31 q 287 -9 206 -9 q 168 -9 136 1 q 104 11 74 32 l 68 0 l 44 0 q 45 30 46 61 q 47 92 47 125 q 47 143 46 152 q 45 161 44 169 l 72 169 q 76 94 110 56 q 145 19 211 19 q 259 19 286 42 q 313 66 313 108 q 313 143 291 163 q 270 184 208 202 l 208 202 q 39 253 39 344 q 39 407 83 447 q 126 486 198 486 q 236 486 267 476 q 297 465 323 444 z"},">":{"x_min":0,"x_max":833,"ha":833,"o":"m 129 559 l 704 323 l 704 273 l 129 37 l 129 100 l 617 298 l 129 497 z"},"l":{"x_min":0,"x_max":269,"ha":269,"o":"m 174 743 l 174 95 q 174 48 187 39 q 199 30 254 28 l 254 0 q 201 3 174 4 q 146 5 129 5 q 117 5 96 4 q 75 3 15 0 l 15 28 q 74 33 85 42 q 95 52 95 95 l 95 638 q 95 678 81 688 q 67 699 9 699 l 9 727 q 53 729 94 733 q 135 737 174 743 z"},"8":{"x_min":0,"x_max":556,"ha":556,"o":"m 227 338 q 173 315 145 272 q 116 229 116 172 q 116 104 159 63 q 202 21 271 21 q 338 21 380 62 q 422 103 422 167 q 422 229 385 264 q 347 299 227 338 z m 348 365 q 429 341 468 298 q 507 255 507 191 q 507 100 443 46 q 379 -9 272 -9 q 171 -9 109 42 q 47 94 47 176 q 47 239 83 282 q 120 325 197 353 q 133 378 105 417 q 76 456 76 518 q 76 603 132 656 q 187 708 278 708 q 363 708 418 659 q 473 611 473 536 q 473 480 442 437 q 410 394 348 365 z m 318 378 q 363 401 385 440 q 408 479 408 532 q 408 598 374 638 q 339 678 284 678 q 225 678 187 640 q 150 602 150 542 q 150 484 187 448 q 223 412 318 378 z"},"\\":{"x_min":0,"x_max":296,"ha":296,"o":"m -39 727 l 11 727 l 309 -93 l 259 -93 z"},"e":{"x_min":0,"x_max":505,"ha":505,"o":"m 384 294 l 384 307 q 384 380 354 419 q 324 459 269 459 q 209 459 172 413 q 135 368 129 287 z m 459 265 l 128 257 l 128 250 q 128 147 168 94 q 208 41 287 41 q 341 41 380 67 q 419 94 438 143 l 460 135 q 439 66 386 29 q 334 -9 259 -9 q 155 -9 97 55 q 39 120 39 235 q 39 346 103 416 q 166 486 266 486 q 356 486 408 433 q 460 380 460 288 q 460 284 459 276 q 459 269 459 265 z"},"b":{"x_min":0,"x_max":521,"ha":521,"o":"m 141 109 q 141 77 177 50 q 213 23 259 23 q 327 23 360 75 q 394 127 394 233 q 394 338 363 395 q 331 451 273 451 q 252 451 231 442 q 210 433 191 416 q 172 399 156 377 q 141 355 141 350 z m 141 743 l 141 401 q 169 443 208 465 q 246 486 293 486 q 377 486 429 421 q 481 356 481 250 q 481 130 422 61 q 363 -9 263 -9 q 203 -9 148 27 q 133 37 128 37 q 118 37 107 26 q 96 14 82 -9 l 62 -9 l 62 663 q 62 707 -1 708 q -6 708 -9 708 l -9 736 q 28 738 80 740 q 133 743 141 743 z"},"%":{"x_min":0,"x_max":780,"ha":780,"o":"m 587 395 q 545 395 521 340 q 496 286 496 191 q 496 107 518 62 q 541 17 582 17 q 623 17 647 72 q 672 126 672 221 q 672 304 650 349 q 627 395 587 395 z m 585 421 q 654 421 695 365 q 736 310 736 215 q 736 111 695 51 q 653 -9 582 -9 q 513 -9 472 46 q 432 102 432 198 q 432 301 473 361 q 515 421 585 421 z m 198 682 q 157 682 132 627 q 108 572 108 478 q 108 396 130 350 q 152 304 191 304 q 234 304 259 358 q 283 412 283 508 q 283 592 261 637 q 239 682 198 682 z m 594 708 l 637 708 l 186 -9 l 142 -9 z m 197 708 q 269 708 308 652 q 347 596 347 493 q 347 396 305 337 q 263 278 194 278 q 125 278 84 333 q 44 389 44 484 q 44 588 85 648 q 126 708 197 708 z"},"m":{"x_min":0,"x_max":882,"ha":882,"o":"m 174 486 l 174 372 q 206 430 247 458 q 288 486 341 486 q 401 486 437 456 q 473 427 479 372 q 510 429 552 458 q 594 486 647 486 q 722 486 755 446 q 787 405 787 307 l 787 90 q 787 49 798 40 q 808 31 847 28 l 847 0 q 797 3 776 4 q 756 5 745 5 q 725 5 698 4 q 670 2 629 0 l 629 28 q 685 32 697 42 q 708 51 708 95 l 708 319 q 708 389 689 420 q 670 451 628 451 q 578 451 535 408 q 493 365 481 299 l 481 95 q 481 49 492 40 q 502 31 542 28 l 542 0 q 492 3 471 4 q 451 5 440 5 q 420 5 392 4 q 364 2 323 0 l 323 28 q 380 33 392 42 q 403 51 403 95 l 403 319 q 403 388 384 420 q 364 451 322 451 q 271 451 230 408 q 188 365 176 299 l 176 95 q 176 50 186 41 q 196 32 236 28 l 236 0 q 186 3 164 4 q 143 5 131 5 q 115 5 90 4 q 65 3 17 0 l 17 28 q 76 33 87 42 q 97 52 97 95 l 97 381 q 97 422 84 431 q 71 441 14 442 l 14 470 q 55 472 95 476 q 135 480 174 486 z"},"#":{"x_min":0,"x_max":769,"ha":769,"o":"m 342 424 l 293 284 l 434 284 l 484 424 z m 380 711 l 445 711 l 363 481 l 503 481 l 585 711 l 649 711 l 568 481 l 718 481 l 698 424 l 547 424 l 498 284 l 660 284 l 639 228 l 478 228 l 397 -1 l 332 -1 l 413 228 l 273 228 l 192 -1 l 128 -1 l 209 228 l 51 228 l 72 284 l 229 284 l 278 424 l 108 424 l 129 481 l 299 481 z"},",":{"x_min":0,"x_max":278,"ha":278,"o":"m 93 -161 l 75 -141 q 111 -110 129 -79 q 147 -47 147 -14 q 147 -7 147 -3 q 146 0 146 3 q 140 1 134 1 q 128 0 123 0 q 101 0 87 14 q 73 28 73 51 q 73 74 88 90 q 103 105 125 105 q 155 105 173 80 q 192 56 192 15 q 192 -30 166 -76 q 141 -122 93 -161 z"},"n":{"x_min":0,"x_max":600,"ha":600,"o":"m 174 486 l 174 372 q 208 431 253 458 q 298 486 357 486 q 436 486 470 445 q 505 403 505 307 l 505 90 q 505 49 515 41 q 525 32 564 28 l 564 0 q 511 3 491 4 q 472 5 460 5 q 444 5 419 4 q 395 3 346 0 l 346 28 q 405 33 416 42 q 426 52 426 95 l 426 319 q 426 389 404 420 q 383 451 335 451 q 275 451 226 399 q 176 347 176 287 l 176 95 q 176 50 186 41 q 196 32 236 28 l 236 0 q 186 3 164 4 q 143 5 131 5 q 116 5 92 4 q 67 3 15 0 l 15 28 q 76 34 87 43 q 97 52 97 95 l 97 381 q 97 422 84 431 q 72 441 15 442 l 15 470 q 66 473 103 477 q 140 481 174 486 z"},"h":{"x_min":0,"x_max":597,"ha":597,"o":"m 174 743 l 174 375 q 206 430 251 458 q 296 486 352 486 q 433 486 467 446 q 502 406 502 307 l 502 95 q 502 50 512 41 q 522 32 562 28 l 562 0 q 509 3 489 4 q 470 5 458 5 q 442 5 416 4 q 390 3 343 0 l 343 28 q 403 34 414 43 q 424 52 424 95 l 424 319 q 424 391 403 420 q 382 450 334 450 q 272 450 223 399 q 174 348 174 287 l 174 90 q 174 49 184 41 q 194 32 233 28 l 233 0 q 180 3 160 4 q 141 5 129 5 q 113 5 88 4 q 63 3 15 0 l 15 28 q 74 33 85 42 q 95 52 95 95 l 95 648 q 95 687 85 697 q 74 706 23 708 l 23 736 q 63 737 100 739 q 138 740 174 743 z"},"z":{"x_min":0,"x_max":456,"ha":456,"o":"m 36 477 l 414 477 l 414 472 l 125 28 l 255 28 q 343 28 367 51 q 391 73 392 141 l 414 141 l 414 0 l 17 0 l 17 5 l 304 449 l 195 449 q 112 449 87 430 q 62 411 57 355 l 36 355 z"},"B":{"x_min":0,"x_max":664,"ha":664,"o":"m 231 351 l 231 32 l 303 32 q 414 32 456 68 q 499 104 499 192 q 499 278 452 314 q 406 351 296 351 z m 231 685 l 231 383 l 320 383 q 403 383 442 419 q 480 455 480 533 q 480 616 444 651 q 407 685 307 685 z m 58 718 q 61 718 65 717 q 69 717 72 717 q 73 717 81 717 q 123 715 165 715 q 205 715 257 716 q 310 718 323 718 q 449 718 509 674 q 569 630 569 539 q 569 469 528 426 q 487 383 407 367 q 505 347 552 304 q 598 261 598 190 q 598 138 579 99 q 559 61 521 36 q 491 17 446 8 q 401 0 306 0 q 285 0 241 1 q 197 2 174 2 q 131 2 106 1 q 82 1 58 0 l 58 32 q 111 32 125 46 q 139 59 139 114 l 139 604 q 139 659 125 672 q 112 684 58 685 z"},"K":{"x_min":0,"x_max":664,"ha":664,"o":"m 58 718 q 110 715 136 714 q 163 713 180 713 q 202 713 233 714 q 264 715 312 718 l 312 685 q 259 685 245 671 q 231 658 231 604 l 231 346 l 471 617 l 472 618 q 500 649 500 664 q 500 678 486 684 q 472 690 435 690 l 435 718 q 477 715 500 714 q 523 713 537 713 q 555 713 581 714 q 607 715 646 718 l 646 690 q 583 688 541 640 q 536 634 533 631 l 335 410 l 570 93 q 593 61 618 47 q 643 32 674 32 l 677 32 l 677 0 q 624 3 597 4 q 570 5 555 5 q 540 5 514 4 q 488 3 435 0 l 435 32 q 457 32 467 38 q 477 43 477 55 q 477 65 465 83 q 462 86 461 88 l 277 346 l 231 298 l 231 114 q 231 61 244 47 q 256 33 312 32 l 312 0 q 252 3 228 4 q 204 5 191 5 q 172 5 143 4 q 113 3 58 0 l 58 32 q 111 32 125 46 q 139 59 139 114 l 139 604 q 139 659 125 672 q 112 684 58 685 z"},"R":{"x_min":0,"x_max":687,"ha":687,"o":"m 231 378 q 237 378 250 377 q 289 376 302 376 q 395 376 438 414 q 481 453 481 535 q 481 614 438 651 q 396 688 304 688 q 294 688 270 687 q 245 686 231 685 z m 58 718 q 80 716 103 716 q 125 715 148 715 l 180 715 q 189 715 228 716 q 267 718 296 718 q 444 718 510 675 q 577 632 577 538 q 577 456 522 411 q 468 367 359 361 q 457 350 501 313 q 545 275 556 195 q 559 174 561 134 q 565 40 609 40 q 630 40 643 54 q 656 67 663 97 l 684 92 q 676 42 648 16 q 621 -9 575 -9 q 520 -9 494 21 q 468 50 468 112 q 468 128 469 152 q 469 175 469 183 q 469 277 431 310 q 394 342 292 342 l 231 342 l 231 114 q 231 61 244 47 q 256 33 312 32 l 312 0 q 252 3 228 4 q 204 5 191 5 q 172 5 143 4 q 113 3 58 0 l 58 32 q 111 32 125 46 q 139 59 139 114 l 139 604 q 139 659 125 672 q 112 684 58 685 z"},"T":{"x_min":0,"x_max":667,"ha":667,"o":"m 36 718 l 631 718 l 652 535 l 627 535 q 615 621 581 653 q 546 685 465 685 l 380 685 l 380 114 q 380 58 394 45 q 409 32 463 32 l 475 32 l 475 0 q 416 3 386 4 q 356 5 339 5 q 318 5 285 4 q 251 3 192 0 l 192 32 l 204 32 q 258 32 273 46 q 287 59 287 114 l 287 685 l 202 685 q 120 685 86 653 q 51 621 40 535 l 15 535 z"},"P":{"x_min":0,"x_max":609,"ha":609,"o":"m 231 355 q 250 354 270 353 q 289 352 290 352 q 392 352 437 392 q 481 432 481 522 q 481 610 437 648 q 393 687 291 687 q 277 687 262 687 q 247 686 231 685 z m 58 718 q 84 716 106 716 q 128 715 145 715 q 184 715 233 716 q 281 718 291 718 q 443 718 510 672 q 577 626 577 524 q 577 419 514 368 q 450 318 318 318 q 300 318 278 319 q 256 320 231 322 l 231 114 q 231 59 246 45 q 260 32 317 32 l 330 32 l 330 0 q 271 3 240 4 q 210 5 191 5 q 172 5 143 4 q 114 3 58 0 l 58 32 q 111 32 125 46 q 139 59 139 114 l 139 604 q 139 659 125 672 q 111 685 58 687 z"},"|":{"x_min":0,"x_max":500,"ha":500,"o":"m 219 764 l 281 764 l 281 -236 l 219 -236 z"},"t":{"x_min":0,"x_max":334,"ha":334,"o":"m 140 604 l 170 604 l 166 458 l 287 458 l 287 431 l 166 431 l 159 166 l 159 142 q 159 84 173 64 q 188 43 222 43 q 247 43 264 55 q 281 68 292 94 l 312 86 q 299 42 265 16 q 231 -9 184 -9 q 128 -9 104 21 q 79 51 79 119 l 79 134 l 87 431 l 34 431 l 34 452 q 80 474 107 512 q 133 550 140 604 z"},"M":{"x_min":0,"x_max":907,"ha":907,"o":"m 53 718 q 91 715 112 714 q 132 713 144 713 q 163 713 188 714 q 214 715 250 718 l 452 150 l 655 718 q 690 715 711 714 q 731 713 744 713 q 764 713 790 714 q 815 715 849 718 l 849 685 q 797 684 783 673 q 768 661 768 609 l 768 114 q 768 58 782 45 q 796 33 849 32 l 849 0 q 795 3 769 4 q 742 5 727 5 q 708 5 679 4 q 649 3 594 0 l 594 32 q 646 32 661 46 q 675 60 675 114 l 675 673 l 671 673 l 434 9 l 412 14 l 178 673 l 170 673 l 166 143 l 166 129 q 166 66 181 49 q 197 32 247 32 l 247 0 q 204 3 181 4 q 158 5 143 5 q 129 5 106 4 q 83 3 38 0 l 38 32 q 128 33 129 138 q 129 141 129 142 l 134 626 l 134 632 q 134 664 120 674 q 106 684 53 685 z"},"g":{"x_min":0,"x_max":477,"ha":477,"o":"m 136 -14 q 106 -25 90 -47 q 74 -69 74 -97 q 74 -144 115 -170 q 156 -196 230 -196 q 312 -196 363 -166 q 414 -135 414 -90 q 414 -33 272 -25 q 188 -21 136 -14 z m 219 458 q 168 458 143 424 q 117 389 117 322 q 117 254 143 220 q 168 186 219 186 q 269 186 295 221 q 321 255 321 322 q 321 389 295 423 q 269 458 219 458 z m 479 486 q 482 480 484 476 q 485 472 485 466 q 485 452 476 444 q 467 436 450 436 q 438 436 422 444 q 406 452 401 452 q 394 452 385 444 q 376 437 365 421 q 379 404 387 380 q 394 355 394 323 q 394 249 354 206 q 313 164 237 158 q 225 157 202 156 q 112 153 112 108 q 112 61 269 56 q 285 55 293 55 q 396 52 436 25 q 476 -1 476 -61 q 476 -132 405 -177 q 333 -223 219 -223 q 132 -223 80 -190 q 29 -157 29 -103 q 29 -68 48 -43 q 68 -18 107 -1 q 83 10 71 29 q 58 48 58 73 q 58 107 78 134 q 99 160 138 176 q 92 192 67 229 q 42 266 42 317 q 42 391 91 438 q 140 485 216 485 q 260 485 294 473 q 328 461 350 438 q 373 468 395 482 q 417 495 444 495 q 453 495 462 493 q 470 491 479 486 z"},"j":{"x_min":0,"x_max":252,"ha":252,"o":"m 174 486 l 174 -17 q 174 -125 137 -173 q 100 -222 20 -222 q -30 -222 -63 -196 q -95 -169 -95 -129 q -95 -106 -84 -92 q -73 -78 -55 -78 q -39 -78 -28 -90 q -18 -103 -18 -122 q -18 -137 -27 -152 q -35 -167 -35 -169 q -35 -181 -20 -189 q -4 -197 20 -197 q 60 -197 78 -168 q 95 -139 95 -70 l 95 381 q 95 422 81 432 q 67 442 -5 442 l -5 470 q 43 472 88 476 q 132 479 174 486 z m 105 683 q 125 683 140 669 q 154 654 154 634 q 154 615 139 600 q 125 586 105 586 q 86 586 72 601 q 57 615 57 634 q 57 653 72 668 q 86 683 105 683 z"},"i":{"x_min":0,"x_max":271,"ha":271,"o":"m 176 486 l 176 95 q 176 47 189 38 q 203 29 259 28 l 259 0 q 207 3 178 4 q 149 5 131 5 q 113 5 84 4 q 56 3 2 0 l 2 28 l 3 28 q 97 33 97 95 l 97 381 q 97 422 84 432 q 70 442 2 442 l 2 470 q 46 472 90 476 q 134 479 176 486 z m 138 667 q 159 667 171 656 q 182 645 182 625 q 182 605 164 588 q 145 570 123 570 q 104 570 93 581 q 82 593 82 613 q 82 632 100 649 q 118 667 138 667 z"},"y":{"x_min":0,"x_max":451,"ha":451,"o":"m -12 477 q 28 474 50 473 q 72 472 86 472 q 104 472 128 473 q 152 474 191 477 l 191 449 l 183 449 q 162 449 150 443 q 137 436 137 426 q 137 411 146 388 q 148 383 149 380 l 253 114 q 267 155 292 225 q 350 391 350 415 q 350 431 334 439 q 319 447 285 449 l 285 477 q 316 474 335 473 q 353 472 366 472 q 379 472 397 473 q 415 474 445 477 l 445 449 q 420 448 406 436 q 393 424 382 394 l 228 -44 q 190 -151 160 -187 q 130 -222 84 -222 q 60 -222 44 -210 q 29 -198 29 -180 q 29 -165 40 -155 q 51 -145 69 -145 q 86 -145 106 -157 q 125 -170 131 -170 q 147 -170 167 -128 q 188 -85 216 10 l 64 379 q 63 380 62 384 q 39 440 -12 449 z"},"@":{"x_min":0,"x_max":986,"ha":986,"o":"m 581 164 q 551 112 513 87 q 476 61 430 61 q 369 61 332 106 q 295 151 295 225 q 295 278 319 331 q 343 383 386 425 q 418 456 457 474 q 495 491 532 491 q 575 491 602 467 q 629 443 640 396 l 666 484 l 736 484 l 653 186 q 653 185 652 184 q 644 155 644 133 q 644 110 656 96 q 669 83 690 83 q 707 83 729 92 q 750 100 770 115 q 830 159 861 228 q 893 297 893 382 q 893 450 869 505 q 844 560 794 604 q 750 643 688 664 q 627 685 558 685 q 467 685 391 656 q 316 628 257 571 q 193 509 161 427 q 128 346 128 247 q 128 162 156 98 q 184 35 244 -16 q 300 -63 372 -88 q 443 -112 528 -112 q 607 -112 683 -86 q 758 -61 827 -11 l 842 -29 q 770 -83 689 -110 q 608 -137 522 -137 q 431 -137 355 -115 q 279 -92 221 -47 q 147 8 109 87 q 71 166 71 262 q 71 362 113 448 q 155 535 235 601 q 299 655 377 682 q 455 709 545 709 q 714 709 815 618 q 916 526 916 374 q 916 297 888 229 q 859 161 808 114 q 780 88 748 75 q 715 61 682 61 q 635 61 609 87 q 584 112 581 164 z m 536 471 q 510 471 488 456 q 466 441 443 407 q 408 354 387 293 q 366 231 366 183 q 366 138 386 111 q 406 85 439 85 q 471 85 500 107 q 530 128 557 172 q 585 218 602 271 q 618 324 618 367 q 618 413 595 442 q 572 471 536 471 z"},".":{"x_min":0,"x_max":278,"ha":278,"o":"m 139 105 q 160 105 172 90 q 185 75 185 50 q 185 25 172 10 q 160 -5 139 -5 q 118 -5 105 10 q 93 25 93 50 q 93 75 105 90 q 118 105 139 105 z"},"p":{"x_min":0,"x_max":552,"ha":552,"o":"m 174 135 q 195 91 229 67 q 262 43 301 43 q 361 43 393 96 q 425 149 425 250 q 425 347 393 399 q 362 451 303 451 q 266 451 233 425 q 201 399 174 348 z m 95 381 q 95 419 82 431 q 69 442 14 442 l 14 470 q 56 473 94 477 q 133 480 170 486 l 170 398 q 200 442 239 464 q 277 486 325 486 q 409 486 461 421 q 513 356 513 250 q 513 141 461 74 q 408 8 322 8 q 276 8 239 26 q 202 45 174 82 l 174 -122 q 174 -166 186 -174 q 197 -182 259 -185 l 259 -213 q 216 -210 185 -209 q 153 -208 128 -208 q 112 -208 86 -209 q 61 -210 14 -213 l 14 -185 q 69 -182 82 -172 q 95 -162 95 -118 z"},"X":{"x_min":0,"x_max":639,"ha":639,"o":"m 19 718 q 42 717 81 715 q 121 713 138 713 q 157 713 199 715 q 242 717 264 718 l 264 685 q 231 684 218 676 q 204 668 204 651 q 204 644 207 635 q 210 627 219 612 l 340 422 l 464 626 q 471 638 474 646 q 477 653 477 660 q 477 672 464 678 q 450 685 425 685 l 415 685 l 415 718 q 451 715 477 714 q 503 713 524 713 q 536 713 556 714 q 576 715 618 718 l 618 685 l 614 685 q 576 685 552 670 q 527 655 502 616 l 361 395 l 547 112 q 551 106 558 96 q 599 32 637 32 l 641 32 l 641 0 q 604 0 565 2 q 525 4 522 4 q 510 4 465 2 q 419 0 386 0 l 386 32 q 426 32 442 40 q 457 47 457 66 q 457 73 454 81 q 451 89 441 106 l 296 331 l 151 92 l 150 91 q 138 70 138 58 q 138 46 152 40 q 166 33 191 33 l 200 33 l 200 0 q 170 2 142 3 q 114 4 91 4 q 76 4 52 3 q 27 2 -3 0 l -3 33 l 1 33 q 40 33 64 48 q 88 62 113 101 l 276 357 l 114 606 q 112 609 107 616 q 62 685 23 685 l 19 685 z"},"*":{"x_min":0,"x_max":481,"ha":481,"o":"m 230 526 l 251 526 q 253 515 256 497 q 265 440 265 427 q 265 411 260 403 q 254 395 241 391 q 228 395 222 403 q 216 412 216 427 q 216 442 226 500 q 229 517 230 526 z m 208 552 l 218 534 q 208 526 189 511 q 132 465 118 465 q 111 465 106 467 q 100 470 95 475 q 94 478 94 480 q 94 482 94 486 q 94 509 180 542 q 198 548 208 552 z m 274 551 q 285 547 305 539 q 387 509 387 486 q 387 482 387 480 q 387 478 386 475 q 381 470 375 468 q 370 465 363 465 q 348 465 278 521 l 263 534 z m 218 584 l 208 566 q 198 570 181 576 q 94 609 94 632 l 94 634 q 94 636 94 637 q 95 639 96 643 q 101 648 106 650 q 112 653 118 653 q 135 653 217 585 z m 386 643 q 387 640 387 637 q 387 635 387 632 q 387 608 305 578 q 285 570 274 566 l 264 584 q 270 589 281 598 q 347 653 363 653 q 370 653 375 650 q 381 648 386 643 z m 241 727 q 253 724 259 715 q 265 707 265 691 q 265 677 255 617 q 252 600 251 591 l 230 591 q 229 600 226 617 q 216 677 216 691 q 216 707 222 715 q 228 723 241 727 z"},"Y":{"x_min":0,"x_max":591,"ha":591,"o":"m -8 718 q 41 715 66 714 q 91 713 107 713 q 132 713 163 714 q 194 715 238 718 l 238 685 q 205 685 191 678 q 178 671 178 655 q 178 650 179 646 q 180 642 182 639 l 331 374 l 454 603 q 463 619 467 631 q 471 643 471 652 q 471 670 458 678 q 444 685 407 685 l 407 718 q 441 715 463 714 q 485 713 500 713 q 515 713 536 714 q 558 715 591 718 l 591 685 q 559 682 546 675 q 532 667 520 645 l 348 337 l 348 114 q 348 58 362 45 q 376 32 431 32 l 443 32 l 443 0 q 383 3 354 4 q 325 5 308 5 q 287 5 254 4 q 221 3 161 0 l 161 32 l 173 32 q 228 32 242 46 q 256 59 256 114 l 256 327 l 84 620 l 84 620 q 47 685 -5 685 l -8 685 z"},"c":{"x_min":0,"x_max":493,"ha":493,"o":"m 436 143 l 457 135 q 435 64 385 28 q 334 -9 259 -9 q 158 -9 98 54 q 39 117 39 224 q 39 340 106 413 q 172 486 278 486 q 348 486 396 447 q 444 408 444 355 q 444 335 434 324 q 424 312 408 312 q 391 312 379 326 q 367 339 367 360 q 367 373 373 388 q 378 404 378 406 q 378 426 350 442 q 321 457 280 457 q 210 457 169 396 q 127 335 127 232 q 127 139 167 90 q 208 41 285 41 q 339 41 378 67 q 417 94 436 143 z"},"!":{"x_min":0,"x_max":356,"ha":356,"o":"m 179 94 q 200 94 215 79 q 230 63 230 43 q 230 20 216 6 q 201 -9 179 -9 q 157 -9 142 6 q 126 21 126 43 q 126 63 142 79 q 158 94 179 94 z m 178 727 q 204 715 217 690 q 230 665 230 628 q 230 608 213 451 q 195 294 192 153 l 164 153 q 160 298 143 453 q 126 609 126 623 q 126 665 139 690 q 151 715 178 727 z"},"/":{"x_min":0,"x_max":296,"ha":296,"o":"m 259 727 l 309 727 l 11 -93 l -39 -93 z"},"[":{"x_min":0,"x_max":310,"ha":310,"o":"m 256 736 l 266 708 q 246 702 225 698 q 203 695 180 695 l 169 695 l 169 -137 l 182 -137 q 205 -137 223 -140 q 241 -143 256 -148 l 266 -178 q 247 -171 226 -167 q 205 -164 181 -164 q 159 -164 142 -167 q 125 -171 109 -178 q 111 -121 112 -62 q 113 -4 113 55 l 113 503 q 113 562 112 620 q 111 678 109 736 q 124 729 142 726 q 159 722 182 722 q 206 722 224 725 q 241 729 256 736 z"},"6":{"x_min":0,"x_max":556,"ha":556,"o":"m 133 304 q 132 296 132 287 q 132 278 132 260 q 132 141 171 82 q 209 23 288 23 q 357 23 396 73 q 435 123 435 213 q 435 299 398 347 q 361 395 295 395 q 250 395 209 372 q 169 350 133 304 z m 430 630 q 415 652 386 665 q 358 677 323 677 q 230 677 185 596 q 139 515 135 345 q 177 388 219 407 q 261 427 311 427 q 401 427 457 370 q 512 312 512 218 q 512 118 448 55 q 384 -9 284 -9 q 171 -9 108 75 q 46 158 46 310 q 46 493 120 601 q 195 709 317 709 q 388 709 440 667 q 492 625 492 573 q 492 552 484 541 q 476 529 461 529 q 443 529 434 543 q 424 558 424 584 q 424 593 426 605 q 427 617 430 630 z"},"r":{"x_min":0,"x_max":400,"ha":400,"o":"m 174 486 l 174 353 q 201 419 234 453 q 268 486 308 486 q 339 486 359 465 q 379 444 379 412 q 379 388 368 375 q 357 362 337 362 q 317 362 306 374 q 295 387 295 410 q 295 421 298 432 q 301 444 307 456 l 301 456 q 253 456 214 386 q 176 316 176 222 l 176 95 q 176 53 192 42 q 208 30 289 28 l 289 0 q 238 2 200 4 q 163 5 132 5 q 124 5 66 2 q 35 1 15 0 l 15 28 q 77 34 87 43 q 98 52 98 95 l 98 381 q 98 422 85 431 q 72 441 15 442 l 15 470 q 55 472 95 476 q 134 480 174 486 z"},"2":{"x_min":0,"x_max":556,"ha":556,"o":"m 108 57 q 142 66 178 70 q 214 74 269 74 q 299 74 345 71 q 391 68 407 68 q 463 68 480 179 l 481 186 l 510 186 q 506 138 500 90 q 493 42 483 -4 q 472 -4 461 -5 q 450 -5 437 -5 q 371 -5 282 -2 q 193 0 170 0 l 143 0 q 105 0 83 -1 q 61 -2 40 -5 l 35 2 q 52 43 85 82 q 118 122 178 172 q 306 279 344 346 q 381 413 381 498 q 381 577 338 624 q 295 670 222 670 q 153 670 108 628 q 64 586 64 521 l 64 511 q 98 503 119 484 q 139 466 139 443 q 139 428 131 421 q 123 413 106 413 q 73 413 52 443 q 30 472 30 519 q 30 603 88 655 q 147 708 242 708 q 341 708 404 650 q 467 592 467 502 q 467 426 422 354 q 377 283 285 210 q 268 196 233 171 q 141 103 108 57 z"},"{":{"x_min":0,"x_max":500,"ha":500,"o":"m 413 740 l 413 715 q 344 714 318 688 q 293 662 293 586 l 293 516 q 293 406 263 365 q 233 325 153 310 q 233 295 263 255 q 293 214 293 104 l 293 34 q 293 -42 318 -68 q 343 -93 413 -94 l 413 -119 l 408 -119 q 302 -119 263 -83 q 223 -47 223 50 l 223 154 q 223 231 194 260 q 166 290 86 296 l 86 325 q 167 333 195 361 q 223 390 223 467 l 223 571 q 223 668 263 704 q 302 740 408 740 z"},"9":{"x_min":0,"x_max":556,"ha":556,"o":"m 112 81 q 126 53 157 38 q 187 22 227 22 q 317 22 363 94 q 409 167 410 310 q 367 276 326 261 q 286 245 242 245 q 152 245 99 305 q 46 365 46 468 q 46 574 108 641 q 169 708 266 708 q 379 708 441 616 q 503 524 503 355 q 503 187 428 89 q 353 -10 228 -10 q 152 -10 101 34 q 49 77 49 138 q 49 158 58 170 q 66 182 81 182 q 98 182 108 167 q 118 152 118 126 q 118 117 117 106 q 115 95 112 81 z m 410 344 q 411 371 412 384 q 412 397 412 408 q 412 547 378 611 q 343 676 269 676 q 201 676 164 625 q 126 574 126 481 q 126 387 164 335 q 201 283 268 283 q 303 283 338 298 q 374 313 410 344 z"}," ":{"x_min":0,"x_max":278,"ha":278,"o":""},"I":{"x_min":0,"x_max":370,"ha":370,"o":"m 53 718 q 106 715 134 714 q 162 713 180 713 q 203 713 235 714 q 267 715 317 718 l 317 685 q 259 685 245 672 q 231 659 231 604 l 231 114 q 231 57 245 45 q 260 32 317 32 l 317 0 q 251 3 228 4 q 205 5 191 5 q 171 5 140 4 q 109 3 53 0 l 53 32 q 110 32 125 45 q 139 59 139 114 l 139 604 q 139 660 125 673 q 111 685 53 685 z"},"H":{"x_min":0,"x_max":817,"ha":817,"o":"m 58 718 q 110 715 136 714 q 163 713 180 713 q 202 713 233 714 q 264 715 312 718 l 312 685 q 259 685 245 671 q 231 658 231 604 l 231 398 l 586 398 l 586 604 q 586 658 573 671 q 559 684 505 685 l 505 718 q 557 715 583 714 q 609 713 626 713 q 649 713 680 714 q 711 715 759 718 l 759 685 q 705 684 691 671 q 678 659 678 604 l 678 114 q 678 58 692 45 q 706 33 759 32 l 759 0 q 706 3 679 4 q 652 5 637 5 q 619 5 590 4 q 561 3 505 0 l 505 32 q 558 32 572 46 q 586 60 586 114 l 586 365 l 231 365 l 231 114 q 231 61 244 47 q 256 33 312 32 l 312 0 q 252 3 228 4 q 204 5 191 5 q 172 5 143 4 q 113 3 58 0 l 58 32 q 111 32 125 46 q 139 59 139 114 l 139 604 q 139 659 125 672 q 112 684 58 685 z"},"4":{"x_min":0,"x_max":556,"ha":556,"o":"m 335 640 l 68 250 l 335 250 z m 414 706 l 414 256 l 499 256 l 499 211 l 414 211 l 414 88 q 414 45 424 36 q 433 28 475 28 l 475 0 q 437 1 409 2 q 381 3 365 3 q 346 3 315 2 q 284 1 240 0 l 240 28 q 301 28 315 39 q 329 50 329 91 l 329 211 l 34 211 l 34 243 q 34 249 39 259 q 44 270 54 284 l 329 685 q 350 689 372 694 q 394 700 414 706 z"},"~":{"x_min":0,"x_max":833,"ha":833,"o":"m 747 370 l 747 306 q 698 271 651 253 q 604 236 558 236 q 537 236 514 240 q 491 245 465 253 q 450 258 422 268 q 324 303 275 303 q 234 303 190 285 q 146 267 87 225 l 87 290 q 138 326 186 343 q 233 361 276 361 q 303 361 333 355 q 362 349 418 329 q 424 327 435 323 q 515 294 559 294 q 601 294 645 312 q 689 330 747 370 z"},"D":{"x_min":0,"x_max":766,"ha":766,"o":"m 231 685 l 231 32 l 311 32 q 380 32 418 40 q 457 47 487 64 q 550 99 582 174 q 614 249 614 360 q 614 458 588 527 q 563 596 512 635 q 477 662 430 674 q 383 685 297 685 z m 58 718 q 61 718 66 717 q 72 717 74 717 q 76 717 86 717 q 126 715 162 715 q 194 715 246 716 q 298 718 318 718 q 511 718 615 624 q 720 530 720 357 q 720 183 621 92 q 522 0 335 0 q 309 0 249 1 q 189 2 155 2 q 111 2 92 1 q 73 1 58 0 l 58 32 q 111 32 125 46 q 139 59 139 114 l 139 604 q 139 659 125 672 q 112 684 58 685 z"},"^":{"x_min":0,"x_max":1000,"ha":1000,"o":"m 456 714 l 543 714 l 797 438 l 752 438 l 499 651 l 245 438 l 201 438 z"},"0":{"x_min":0,"x_max":556,"ha":556,"o":"m 283 678 q 213 678 172 583 q 131 487 131 323 q 131 179 168 100 q 205 22 272 22 q 343 22 383 116 q 424 209 424 375 q 424 521 387 600 q 351 678 283 678 z m 280 708 q 387 708 450 615 q 512 523 512 363 q 512 191 448 91 q 384 -9 275 -9 q 168 -9 106 83 q 44 175 44 336 q 44 508 108 608 q 171 708 280 708 z"},"F":{"x_min":0,"x_max":617,"ha":617,"o":"m 58 718 l 590 718 q 590 691 593 652 q 595 614 600 533 l 575 533 q 562 625 526 655 q 490 685 386 685 l 231 685 l 231 386 l 309 386 q 380 386 398 407 q 417 428 420 499 l 444 499 q 442 450 442 415 q 441 381 441 362 q 441 337 442 301 q 442 265 444 218 l 420 218 q 417 304 398 329 q 379 353 309 353 l 231 353 l 231 114 q 231 58 245 45 q 260 32 314 32 l 326 32 l 326 0 l 58 0 l 58 32 q 111 32 125 46 q 139 59 139 114 l 139 604 q 139 659 125 672 q 112 684 58 685 z"},"`":{"x_min":0,"x_max":500,"ha":500,"o":"m 201 687 l 336 540 l 300 540 l 153 630 q 128 645 120 655 q 112 665 112 678 q 112 694 123 705 q 134 717 149 717 q 161 717 175 709 q 188 702 201 687 z"},"k":{"x_min":0,"x_max":514,"ha":514,"o":"m 174 743 l 174 227 l 335 388 q 344 397 351 409 q 357 420 357 427 q 357 437 348 443 q 338 449 323 449 l 317 449 l 317 477 q 353 474 371 473 q 389 472 400 472 q 415 472 436 473 q 457 474 490 477 l 490 449 l 480 449 q 458 449 442 443 q 426 437 411 422 l 261 277 l 432 87 q 462 53 484 41 q 505 28 529 28 l 532 28 l 532 0 q 491 3 469 4 q 446 5 431 5 q 417 5 394 4 q 371 3 326 0 l 326 28 q 344 29 351 33 q 358 37 358 46 q 358 50 356 55 q 354 60 349 65 l 209 226 l 174 192 l 174 90 q 174 49 184 41 q 194 32 233 28 l 233 0 q 180 3 160 4 q 141 5 129 5 q 113 5 88 4 q 63 3 15 0 l 15 28 q 74 33 85 42 q 95 52 95 95 l 95 638 q 95 677 83 688 q 70 698 23 699 l 23 727 q 65 730 102 734 q 139 738 174 743 z"},"u":{"x_min":0,"x_max":602,"ha":602,"o":"m 171 486 l 171 157 q 171 89 195 62 q 220 35 277 35 q 334 35 375 63 q 416 90 420 131 l 420 381 q 420 421 408 431 q 396 440 348 442 l 348 470 q 391 474 428 478 q 465 481 499 486 l 499 91 q 499 50 509 41 q 519 32 558 28 l 558 0 q 534 1 517 2 q 500 3 490 3 q 478 3 461 2 q 444 1 423 0 l 423 71 q 392 30 348 11 q 304 -9 243 -9 q 162 -9 127 31 q 93 71 93 170 l 93 381 q 93 421 81 431 q 69 440 21 442 l 21 470 q 63 474 100 478 q 136 481 171 486 z"},"]":{"x_min":0,"x_max":310,"ha":310,"o":"m 53 736 q 68 729 86 725 q 104 722 128 722 q 150 722 168 726 q 185 729 201 736 q 198 689 197 634 q 196 579 196 503 l 196 55 q 196 -21 197 -76 q 198 -132 201 -178 q 185 -171 168 -167 q 151 -164 129 -164 q 105 -164 85 -167 q 64 -171 45 -178 l 53 -148 q 68 -143 87 -140 q 106 -137 129 -137 l 141 -137 l 141 695 l 131 695 q 109 695 87 698 q 65 702 45 708 z"},"U":{"x_min":0,"x_max":796,"ha":796,"o":"m 668 325 q 668 229 664 190 q 659 151 649 124 q 624 56 563 24 q 503 -9 401 -9 q 316 -9 258 12 q 199 34 170 75 q 150 104 141 141 q 133 178 133 255 l 133 277 l 133 604 q 133 659 119 672 q 106 684 52 685 l 52 718 q 103 715 130 714 q 157 713 175 713 q 197 713 228 714 q 259 715 307 718 l 307 685 q 253 685 240 671 q 226 658 226 604 l 226 281 q 226 139 271 88 q 316 37 428 37 q 540 37 584 92 q 628 146 628 294 l 628 572 q 628 651 613 668 q 598 685 547 685 l 547 718 q 585 715 610 714 q 635 713 653 713 q 666 713 686 714 q 707 715 749 718 l 749 685 q 698 685 683 668 q 668 651 668 572 z"},"o":{"x_min":0,"x_max":509,"ha":509,"o":"m 257 459 q 197 459 162 400 q 127 341 127 238 q 127 135 161 76 q 194 18 253 18 q 313 18 347 77 q 382 135 382 238 q 382 342 349 401 q 316 459 257 459 z m 39 230 q 39 346 101 416 q 162 486 263 486 q 357 486 414 421 q 470 356 470 246 q 470 130 408 61 q 347 -9 245 -9 q 151 -9 95 56 q 39 120 39 230 z"},"N":{"x_min":0,"x_max":787,"ha":787,"o":"m 33 718 q 67 715 93 714 q 119 713 139 713 q 150 713 168 714 q 187 715 228 718 l 633 174 l 633 574 q 633 650 615 668 q 598 685 540 685 l 534 685 l 534 718 q 573 715 603 714 q 632 713 656 713 q 671 713 693 714 q 714 715 754 718 l 754 685 q 702 684 686 669 q 670 654 670 581 l 670 575 l 670 -5 l 646 0 l 166 646 l 166 143 q 166 62 183 47 q 200 32 264 32 l 264 0 q 218 3 191 4 q 163 5 143 5 q 129 5 107 4 q 84 3 38 0 l 38 32 q 96 33 113 48 q 129 64 129 142 l 129 604 q 129 659 114 672 q 100 685 44 685 l 33 685 z"},"+":{"x_min":0,"x_max":833,"ha":833,"o":"m 388 596 l 446 596 l 446 327 l 709 327 l 709 270 l 446 270 l 446 0 l 388 0 l 388 270 l 124 270 l 124 327 l 388 327 z"},"G":{"x_min":0,"x_max":725,"ha":725,"o":"m 592 663 l 603 713 l 628 713 q 627 701 626 678 q 623 616 623 586 q 623 574 624 532 q 625 506 625 490 l 600 490 q 592 587 538 641 q 484 695 395 695 q 275 695 214 610 q 153 525 153 359 q 153 196 216 110 q 279 25 399 25 q 451 25 490 41 q 530 57 543 82 q 545 86 546 93 q 547 99 547 115 l 547 192 q 547 243 448 247 q 423 248 409 248 l 409 280 q 448 278 484 277 q 521 276 553 276 q 584 276 620 277 q 656 278 695 280 l 695 248 q 662 245 650 235 q 638 226 638 201 l 638 41 l 632 41 l 599 64 q 556 28 501 10 q 446 -9 383 -9 q 224 -9 135 85 q 46 179 46 347 q 46 519 139 623 q 231 727 383 727 q 439 727 491 711 q 542 695 592 663 z"},"q":{"x_min":0,"x_max":542,"ha":542,"o":"m 379 397 q 360 425 332 440 q 304 455 270 455 q 202 455 164 400 q 126 345 126 245 q 126 150 161 100 q 197 50 264 50 q 299 50 327 64 q 355 78 379 107 z m 402 424 l 440 486 l 458 486 l 458 -150 q 458 -168 465 -174 q 472 -181 501 -185 l 501 -213 q 470 -210 447 -209 q 424 -208 406 -208 q 392 -208 367 -209 q 343 -210 293 -213 l 293 -185 q 356 -182 368 -173 q 379 -164 379 -118 l 379 64 q 347 37 312 24 q 276 11 235 11 q 146 11 93 73 q 40 134 40 237 q 40 349 100 417 q 160 486 256 486 q 297 486 332 471 q 366 457 402 424 z"},"d":{"x_min":0,"x_max":553,"ha":553,"o":"m 380 393 q 357 424 329 440 q 301 455 267 455 q 201 455 164 398 q 127 341 127 238 q 127 136 161 81 q 195 27 259 27 q 297 27 327 42 q 356 58 380 91 z m 458 743 l 458 88 q 458 49 469 40 q 479 31 521 29 l 521 2 q 492 -1 426 -6 q 397 -8 382 -9 l 382 55 q 353 22 318 7 q 283 -9 238 -9 q 147 -9 93 55 q 39 119 39 226 q 39 348 96 417 q 153 486 254 486 q 290 486 321 473 q 352 460 380 433 l 380 648 q 380 688 367 698 q 355 707 297 708 l 297 736 l 318 736 q 349 736 382 738 q 416 739 458 743 z"},"1":{"x_min":0,"x_max":556,"ha":556,"o":"m 328 708 l 328 109 q 328 54 343 42 q 357 30 415 30 l 428 30 l 428 0 q 361 3 330 4 q 299 5 280 5 q 258 5 223 4 q 188 3 119 0 l 119 30 l 147 30 q 213 30 229 42 q 244 54 244 110 l 244 637 q 211 630 180 622 q 148 614 119 604 l 119 639 q 145 647 194 661 q 289 687 328 708 z"},"5":{"x_min":0,"x_max":556,"ha":556,"o":"m 475 712 l 490 697 q 447 647 415 629 q 382 612 338 612 q 322 612 250 620 q 177 627 126 632 q 117 576 111 514 q 105 452 101 383 q 136 417 179 434 q 222 450 276 450 q 378 450 439 391 q 500 332 500 231 q 500 122 432 56 q 363 -9 249 -9 q 163 -9 106 36 q 49 81 49 146 q 49 177 62 197 q 75 217 94 217 q 110 217 120 204 q 130 192 130 171 q 130 154 124 136 q 118 119 106 103 q 120 67 157 46 q 193 26 243 26 q 321 26 369 82 q 417 139 417 230 q 417 314 373 363 q 328 412 252 412 q 208 412 170 395 q 131 377 87 337 l 67 356 q 75 423 83 511 q 91 599 100 707 q 240 693 299 688 q 357 683 382 683 q 411 683 431 690 q 452 696 475 712 z"}}}
